<svg width="28" height="28" viewBox="0 0 28 28" fill="none" xmlns="http://www.w3.org/2000/svg">
<g clip-path="url(#clip0_4_692)">
<path d="M24.5 13.9995C24.5 11.7338 19.7995 9.89746 14 9.89746H12.8334" stroke="#CA59FF" stroke-width="1.32857" stroke-linecap="round" stroke-linejoin="round"/>
<path d="M13.5973 16.5266L15.1723 18.1016L13.5973 19.6766" stroke="#CA59FF" stroke-width="1.32857" stroke-linecap="round" stroke-linejoin="round"/>
<path d="M14.0006 24.4998C19.7996 24.4998 24.5006 19.7988 24.5006 13.9998C24.5006 8.20086 19.7996 3.49985 14.0006 3.49985C8.20162 3.49985 3.50061 8.20086 3.50061 13.9998C3.50061 19.7988 8.20162 24.4998 14.0006 24.4998Z" stroke="#CA59FF" stroke-width="1.32857" stroke-linecap="round" stroke-linejoin="round"/>
<path d="M17.8182 17.8176C21.7272 17.2205 24.5 15.7382 24.5 13.9995C24.5 11.7338 19.7995 9.89746 14 9.89746H12.8334" stroke="#CA59FF" stroke-width="1.32857" stroke-linecap="round" stroke-linejoin="round"/>
<path d="M10.1824 10.182C6.27343 10.7791 3.50061 12.2614 3.50061 14.0001C3.50061 16.2658 8.20111 18.1021 14.0006 18.1021H15.1731" stroke="#CA59FF" stroke-width="1.32857" stroke-linecap="round" stroke-linejoin="round"/>
<path d="M14.0006 24.5C16.2663 24.5 18.1026 19.7995 18.1026 14V12.8275" stroke="#CA59FF" stroke-width="1.32857" stroke-linecap="round" stroke-linejoin="round"/>
<path d="M14.001 3.49985C11.7354 3.49985 9.89904 8.20035 9.89904 13.9998V15.1665" stroke="#CA59FF" stroke-width="1.32857" stroke-linecap="round" stroke-linejoin="round"/>
<path d="M14.0006 3.49985C15.7394 3.49985 17.2217 6.27268 17.8188 10.1817" stroke="#CA59FF" stroke-width="1.32857" stroke-linecap="round" stroke-linejoin="round"/>
<path d="M14.0009 24.4996C12.2621 24.4996 10.7798 21.7268 10.1827 17.8177" stroke="#CA59FF" stroke-width="1.32857" stroke-linecap="round" stroke-linejoin="round"/>
</g>
<defs>
<clipPath id="clip0_4_692">
<rect width="28" height="28" fill="white"/>
</clipPath>
</defs>
</svg>
